<mxfile host="app.diagrams.net" modified="2024-07-11T08:13:13.355Z" agent="Mozilla/5.0 (Windows NT 10.0; Win64; x64) AppleWebKit/537.36 (KHTML, like Gecko) Chrome/126.0.0.0 Safari/537.36 Avast/126.0.0.0" version="24.6.4" etag="s0mVc__ljrawJ_-f6Cr-" type="github">
  <diagram name="Page-1" id="UAhgR737EN2BSev_Wkqs">
    <mxGraphModel>
      <root>
        <mxCell id="0" />
        <mxCell id="1" parent="0" />
      </root>
    </mxGraphModel>
  </diagram>
</mxfile>
